<?xml version="1.0" standalone="no"?>
<!DOCTYPE svg PUBLIC "-//W3C//DTD SVG 20010904//EN"
 "http://www.w3.org/TR/2001/REC-SVG-20010904/DTD/svg10.dtd">
<svg version="1.0" xmlns="http://www.w3.org/2000/svg"
 width="920.000000pt" height="981.000000pt" viewBox="0 0 920.000000 981.000000"
 preserveAspectRatio="xMidYMid meet">

<g transform="translate(0.000000,981.000000) scale(0.100000,-0.100000)"
fill="#000000" stroke="none">
<path d="M3573 9799 c-121 -20 -246 -89 -340 -187 -65 -67 -136 -207 -152
-296 -6 -35 -11 -203 -11 -398 l0 -338 -963 0 c-1069 0 -1015 3 -1157 -67
-103 -52 -212 -161 -262 -263 -66 -135 -69 -163 -66 -614 l3 -401 27 -73 c52
-145 153 -265 282 -337 68 -38 195 -75 257 -75 l39 0 3 -2842 c3 -3140 -3
-2860 63 -3063 117 -358 418 -656 781 -774 184 -60 27 -56 2528 -56 2207 0
2303 1 2385 19 299 65 560 233 737 472 102 139 172 294 220 489 16 65 17 262
20 2911 l3 2841 63 6 c143 14 297 92 392 200 48 55 106 157 132 234 25 71 32
803 9 912 -37 179 -164 342 -326 419 -47 22 -109 45 -138 51 -36 8 -359 11
-1012 11 l-959 0 -3 368 c-4 345 -5 371 -26 432 -63 189 -211 338 -402 403
l-65 22 -1005 1 c-553 1 -1028 -2 -1057 -7z m1758 -625 c67 -31 124 -87 156
-152 27 -55 28 -62 31 -249 l4 -193 -922 0 -922 0 4 193 c3 175 5 196 26 242
39 85 112 147 202 172 34 9 205 12 710 10 656 -2 666 -2 711 -23z m2443 -1225
c67 -25 133 -86 166 -154 37 -74 35 -189 -3 -262 -33 -64 -85 -115 -146 -145
l-46 -23 -3125 -3 c-3531 -3 -3186 -11 -3285 79 -72 67 -100 131 -99 229 1
106 39 180 122 241 85 62 -170 58 3239 58 l3122 1 55 -21z m-414 -3971 c-1
-2355 -3 -2785 -15 -2853 -33 -185 -158 -351 -326 -434 -154 -76 26 -71 -2415
-71 -1530 0 -2208 3 -2250 11 -232 42 -411 202 -491 439 -17 53 -18 163 -21
2868 l-2 2812 2760 0 2760 0 0 -2772z"/>
<path d="M2966 5503 c-65 -23 -147 -99 -177 -165 l-24 -53 0 -1905 0 -1905 26
-55 c37 -79 72 -115 144 -151 60 -29 70 -31 147 -27 52 3 96 11 118 22 60 31
128 106 150 164 20 52 20 81 20 1951 0 2120 6 1947 -72 2036 -81 91 -217 128
-332 88z"/>
<path d="M4520 5511 c-81 -26 -158 -90 -194 -159 -36 -70 -37 -122 -34 -2017
l3 -1860 26 -55 c30 -63 86 -122 144 -153 59 -32 212 -32 272 1 60 32 111 86
142 151 l26 56 0 1895 c0 1801 -1 1898 -18 1947 -23 66 -86 137 -151 170 -54
28 -167 40 -216 24z"/>
<path d="M6039 5506 c-56 -20 -105 -54 -143 -98 -71 -83 -66 75 -64 -2048 l3
-1915 22 -40 c26 -48 94 -116 143 -141 50 -27 210 -27 260 0 71 38 109 77 142
144 l33 67 0 1905 0 1905 -24 53 c-62 137 -237 216 -372 168z"/>
</g>
</svg>
