<?xml version="1.0" standalone="no"?>
<!DOCTYPE svg PUBLIC "-//W3C//DTD SVG 20010904//EN"
 "http://www.w3.org/TR/2001/REC-SVG-20010904/DTD/svg10.dtd">
<svg version="1.0" xmlns="http://www.w3.org/2000/svg"
 width="194.000000pt" height="178.000000pt" viewBox="0 0 194.000000 178.000000"
 preserveAspectRatio="xMidYMid meet">

<g transform="translate(0.000000,178.000000) scale(0.100000,-0.100000)"
fill="#000000" stroke="none">
<path d="M246 1718 c-51 -14 -121 -84 -135 -134 -15 -56 -15 -1019 0 -1065 16
-48 54 -96 92 -117 26 -14 67 -18 227 -22 l195 -5 3 -144 c3 -144 10 -178 38
-167 7 3 105 74 216 158 l203 153 277 5 276 5 43 30 c23 17 53 50 66 75 l24
44 -3 531 -3 532 -28 40 c-15 22 -46 50 -70 64 l-42 24 -670 2 c-441 1 -683
-2 -709 -9z m1369 -102 c67 -28 66 -19 63 -582 l-3 -506 -33 -29 -32 -29 -268
0 c-309 0 -255 16 -467 -143 l-140 -106 -5 110 c-4 95 -8 113 -24 125 -16 11
-64 14 -228 14 l-208 0 -32 29 -33 29 -3 506 c-3 561 -4 553 61 581 48 21
1302 22 1352 1z"/>
<path d="M1085 1409 c-20 -5 -108 -86 -252 -231 l-222 -223 -21 -95 c-38 -178
-32 -186 133 -157 l112 19 219 217 c120 119 224 230 232 248 8 18 14 45 14 62
0 44 -57 122 -110 149 -48 24 -59 25 -105 11z m90 -126 c32 -35 32 -53 0 -83
l-25 -24 -45 44 -45 44 22 23 c29 31 62 29 93 -4z m-137 -136 l42 -43 -143
-141 c-134 -134 -145 -143 -195 -154 -29 -6 -55 -9 -58 -6 -3 2 0 26 6 53 10
45 24 62 153 192 78 78 144 142 147 142 3 0 25 -19 48 -43z"/>
</g>
</svg>
