<?xml version="1.0" standalone="no"?>
<!DOCTYPE svg PUBLIC "-//W3C//DTD SVG 20010904//EN"
 "http://www.w3.org/TR/2001/REC-SVG-20010904/DTD/svg10.dtd">
<svg version="1.0" xmlns="http://www.w3.org/2000/svg"
 width="204.000000pt" height="230.000000pt" viewBox="0 0 204.000000 230.000000"
 preserveAspectRatio="xMidYMid meet">

<g transform="translate(0.000000,230.000000) scale(0.100000,-0.100000)"
fill="#000000" stroke="none">
<path d="M931 2073 c-21 -22 -46 -90 -121 -330 l-95 -303 -312 0 -311 0 -31
-26 c-35 -29 -41 -75 -15 -112 8 -12 125 -108 260 -212 134 -105 244 -194 244
-198 0 -4 -43 -141 -95 -305 -52 -164 -95 -309 -95 -323 0 -31 50 -84 80 -84
33 0 44 8 298 207 130 103 241 186 247 186 6 0 117 -83 247 -186 254 -199 265
-207 298 -207 30 0 80 53 80 84 0 14 -43 159 -95 323 -52 164 -95 301 -95 305
0 4 110 93 244 198 135 104 252 200 260 212 24 34 20 81 -10 109 l-26 24 -315
5 -316 5 -98 305 c-79 248 -103 309 -124 327 -35 31 -71 29 -104 -4z m123
-566 c38 -117 74 -211 84 -220 16 -15 47 -17 235 -17 119 0 217 -3 216 -7 0
-5 -70 -62 -155 -128 -170 -131 -204 -165 -204 -200 0 -13 27 -109 60 -212 33
-103 59 -191 58 -195 -2 -5 -75 48 -163 117 -88 69 -170 128 -182 131 l-23 6
0 464 c0 255 2 464 5 464 2 0 33 -91 69 -203z"/>
</g>
</svg>
